<?xml version="1.0" encoding="UTF-8"?>
<svg xmlns="http://www.w3.org/2000/svg" version="1.1" viewBox="0 0 94.81 107.4">
  <defs>
    <style>
      .cls-1 {
        fill: #1d1d1b;
      }

      .cls-2 {
        font-family: InkFree, 'Ink Free';
        font-size: 72px;
      }

      .cls-2, .cls-3 {
        fill: #fff;
      }

      .cls-4 {
        fill: #4ba6ad;
      }

      .cls-5 {
        fill: #f9b233;
      }

      .cls-6 {
        fill: #6cc3bf;
      }
    </style>
  </defs>
  <!-- Generator: Adobe Illustrator 28.7.1, SVG Export Plug-In . SVG Version: 1.2.0 Build 142)  -->
  <g>
    <g id="Lag_1">
      <g>
        <text class="cls-2" transform="translate(1.16 101.05) rotate(2)"><tspan x="0" y="0">B </tspan></text>
        <text class="cls-2" transform="translate(46.06 98.29) rotate(2)"><tspan x="0" y="0">B</tspan></text>
        <circle class="cls-3" cx="87.9" cy="97.94" r="2.8"/>
      </g>
      <g>
        <path class="cls-6" d="M39.02,24.31S21.66,14.1,31.87,3.89s20.31,20.71,20.31,20.71l-13.16-.29Z"/>
        <path class="cls-5" d="M72.89,33.97c0,5.88-10.97,10.64-24.51,10.64s-24.51-4.76-24.51-10.64c0-4.29,5.86-7.99,14.29-9.67,3.11-.62,6.57-.97,10.22-.97,13.54,0,24.51,4.76,24.51,10.64Z"/>
        <path class="cls-1" d="M79.94,33.16c0,5.06-4.1,9.16-9.16,9.16s-9.16-4.1-9.16-9.16,4.15-8.35,7.61-9.03c.72-.14,1.28-.14,1.54-.13,3.71.13,9.16,3.39,9.16,9.16Z"/>
        <path class="cls-1" d="M33.61,33.15h4.26v1.79h-4.26c-9.94-.22-14.17-.48-14.17-.77,0-.28,4.23-.62,14.17-1.02Z"/>
        <path class="cls-3" d="M37.49,34.22c-.4,6.72-.14,7.72-1.02,8.34-2.77,1.96-12.7-2.84-12.6-8.6.11-6,11.07-10.27,13.62-8.09.78.67.4,1.62,0,8.34Z"/>
        <path class="cls-1" d="M32.97,42.88c1.82.31,3.65.61,5.47.92-.09-6.5-.19-13-.28-19.5-1.73.45-3.46.9-5.19,1.35v17.23Z"/>
        <path class="cls-1" d="M46.81,44.63c1.51,0,3.11-.04,4.79-.15,2.08-.13,4.02-.35,5.82-.62-.29-6.45-.58-12.89-.87-19.34-3.4-.02-6.79-.03-10.19-.05.15,6.72.3,13.44.45,20.15Z"/>
        <path class="cls-4" d="M47.33,24.31s-17.36-10.21-7.15-20.43,20.31,20.71,20.31,20.71l-13.16-.29Z"/>
      </g>
    </g>
  </g>
</svg>